<svg version="1.1" xmlns="http://www.w3.org/2000/svg" xmlns:xlink="http://www.w3.org/1999/xlink" width="900" height="410"><defs/><g transform="translate(0,0)"><g><rect fill="rgb(0,0,0)" stroke="none" x="0" y="0" width="900" height="410" fill-opacity="0"/></g><g transform="translate(0.5,0.5) matrix(1,0,0,1,20,70)"><g><g transform="translate(0,0) scale(3.3,3.2)"><g><path fill="rgb(255,255,255)" stroke="none" d="M 0 0 L 100 0 Q 100 0 100 0 L 100 100 Q 100 100 100 100 L 0 100 Q 0 100 0 100 L 0 0 Q 0 0 0 0 Z" fill-opacity="0.008"/><g transform="scale(0.30303030303030304,0.3125)"><path fill="none" stroke="none" d="M 0 0 L 330 0 Q 330 0 330 0 L 330 320 Q 330 320 330 320 L 0 320 Q 0 320 0 320 L 0 0 Q 0 0 0 0 Z"/><path fill="none" stroke="#ffffff" d="M 0 0 M 0 0 L 330 0 Q 330 0 330 0 L 330 320 Q 330 320 330 320 L 0 320 Q 0 320 0 320 L 0 0 Q 0 0 0 0 Z" stroke-miterlimit="10" stroke-width="5"/></g></g></g></g></g><g transform="translate(0,0) matrix(1,0,0,1,50,100)"><g><g transform="translate(0,0) scale(0.6,0.5)"><g><path fill="#ffffff" stroke="none" d="M 0 0 L 100 0 Q 100 0 100 0 L 100 100 Q 100 100 100 100 L 0 100 Q 0 100 0 100 L 0 0 Q 0 0 0 0 Z"/><g transform="scale(1.6666666666666667,2)"><path fill="none" stroke="none" d="M 0 0 L 60 0 Q 60 0 60 0 L 60 50 Q 60 50 60 50 L 0 50 Q 0 50 0 50 L 0 0 Q 0 0 0 0 Z"/><path fill="none" stroke="rgb(0,0,0)" d="M 0 0 M 0 0 L 60 0 Q 60 0 60 0 L 60 50 Q 60 50 60 50 L 0 50 Q 0 50 0 50 L 0 0 Q 0 0 0 0 Z" stroke-opacity="0" stroke-miterlimit="10" stroke-width="0"/></g></g></g></g></g><g transform="translate(0,0) matrix(1,0,0,1,120,100)"><g><g transform="translate(0,0) scale(0.6,0.5)"><g><path fill="#ffffff" stroke="none" d="M 0 0 L 100 0 Q 100 0 100 0 L 100 100 Q 100 100 100 100 L 0 100 Q 0 100 0 100 L 0 0 Q 0 0 0 0 Z"/><g transform="scale(1.6666666666666667,2)"><path fill="none" stroke="none" d="M 0 0 L 60 0 Q 60 0 60 0 L 60 50 Q 60 50 60 50 L 0 50 Q 0 50 0 50 L 0 0 Q 0 0 0 0 Z"/><path fill="none" stroke="rgb(0,0,0)" d="M 0 0 M 0 0 L 60 0 Q 60 0 60 0 L 60 50 Q 60 50 60 50 L 0 50 Q 0 50 0 50 L 0 0 Q 0 0 0 0 Z" stroke-opacity="0" stroke-miterlimit="10" stroke-width="0"/></g></g></g></g></g><g transform="translate(0,0) matrix(1,0,0,1,190,100)"><g><g transform="translate(0,0) scale(0.6,0.5)"><g><path fill="#ffffff" stroke="none" d="M 0 0 L 100 0 Q 100 0 100 0 L 100 100 Q 100 100 100 100 L 0 100 Q 0 100 0 100 L 0 0 Q 0 0 0 0 Z"/><g transform="scale(1.6666666666666667,2)"><path fill="none" stroke="none" d="M 0 0 L 60 0 Q 60 0 60 0 L 60 50 Q 60 50 60 50 L 0 50 Q 0 50 0 50 L 0 0 Q 0 0 0 0 Z"/><path fill="none" stroke="rgb(0,0,0)" d="M 0 0 M 0 0 L 60 0 Q 60 0 60 0 L 60 50 Q 60 50 60 50 L 0 50 Q 0 50 0 50 L 0 0 Q 0 0 0 0 Z" stroke-opacity="0" stroke-miterlimit="10" stroke-width="0"/></g></g></g></g></g><g transform="translate(0,0) matrix(1,0,0,1,260,100)"><g><g transform="translate(0,0) scale(0.6,0.5)"><g><path fill="#ffffff" stroke="none" d="M 0 0 L 100 0 Q 100 0 100 0 L 100 100 Q 100 100 100 100 L 0 100 Q 0 100 0 100 L 0 0 Q 0 0 0 0 Z"/><g transform="scale(1.6666666666666667,2)"><path fill="none" stroke="none" d="M 0 0 L 60 0 Q 60 0 60 0 L 60 50 Q 60 50 60 50 L 0 50 Q 0 50 0 50 L 0 0 Q 0 0 0 0 Z"/><path fill="none" stroke="rgb(0,0,0)" d="M 0 0 M 0 0 L 60 0 Q 60 0 60 0 L 60 50 Q 60 50 60 50 L 0 50 Q 0 50 0 50 L 0 0 Q 0 0 0 0 Z" stroke-opacity="0" stroke-miterlimit="10" stroke-width="0"/></g></g></g></g></g><g transform="translate(0,0) matrix(1,0,0,1,50,160)"><g><g transform="translate(0,0) scale(0.6,0.5)"><g><path fill="#ffffff" stroke="none" d="M 0 0 L 100 0 Q 100 0 100 0 L 100 100 Q 100 100 100 100 L 0 100 Q 0 100 0 100 L 0 0 Q 0 0 0 0 Z"/><g transform="scale(1.6666666666666667,2)"><path fill="none" stroke="none" d="M 0 0 L 60 0 Q 60 0 60 0 L 60 50 Q 60 50 60 50 L 0 50 Q 0 50 0 50 L 0 0 Q 0 0 0 0 Z"/><path fill="none" stroke="rgb(0,0,0)" d="M 0 0 M 0 0 L 60 0 Q 60 0 60 0 L 60 50 Q 60 50 60 50 L 0 50 Q 0 50 0 50 L 0 0 Q 0 0 0 0 Z" stroke-opacity="0" stroke-miterlimit="10" stroke-width="0"/></g></g></g></g></g><g transform="translate(0,0) matrix(1,0,0,1,50,220)"><g><g transform="translate(0,0) scale(0.6,0.5)"><g><path fill="#ffffff" stroke="none" d="M 0 0 L 100 0 Q 100 0 100 0 L 100 100 Q 100 100 100 100 L 0 100 Q 0 100 0 100 L 0 0 Q 0 0 0 0 Z"/><g transform="scale(1.6666666666666667,2)"><path fill="none" stroke="none" d="M 0 0 L 60 0 Q 60 0 60 0 L 60 50 Q 60 50 60 50 L 0 50 Q 0 50 0 50 L 0 0 Q 0 0 0 0 Z"/><path fill="none" stroke="rgb(0,0,0)" d="M 0 0 M 0 0 L 60 0 Q 60 0 60 0 L 60 50 Q 60 50 60 50 L 0 50 Q 0 50 0 50 L 0 0 Q 0 0 0 0 Z" stroke-opacity="0" stroke-miterlimit="10" stroke-width="0"/></g></g></g></g></g><g transform="translate(0,0) matrix(1,0,0,1,120,160)"><g><g transform="translate(0,0) scale(0.6,0.5)"><g><path fill="#ffffff" stroke="none" d="M 0 0 L 100 0 Q 100 0 100 0 L 100 100 Q 100 100 100 100 L 0 100 Q 0 100 0 100 L 0 0 Q 0 0 0 0 Z"/><g transform="scale(1.6666666666666667,2)"><path fill="none" stroke="none" d="M 0 0 L 60 0 Q 60 0 60 0 L 60 50 Q 60 50 60 50 L 0 50 Q 0 50 0 50 L 0 0 Q 0 0 0 0 Z"/><path fill="none" stroke="rgb(0,0,0)" d="M 0 0 M 0 0 L 60 0 Q 60 0 60 0 L 60 50 Q 60 50 60 50 L 0 50 Q 0 50 0 50 L 0 0 Q 0 0 0 0 Z" stroke-opacity="0" stroke-miterlimit="10" stroke-width="0"/></g></g></g></g></g><g transform="translate(0,0) matrix(1,0,0,1,190,160)"><g><g transform="translate(0,0) scale(0.6,0.5)"><g><path fill="#ffffff" stroke="none" d="M 0 0 L 100 0 Q 100 0 100 0 L 100 100 Q 100 100 100 100 L 0 100 Q 0 100 0 100 L 0 0 Q 0 0 0 0 Z"/><g transform="scale(1.6666666666666667,2)"><path fill="none" stroke="none" d="M 0 0 L 60 0 Q 60 0 60 0 L 60 50 Q 60 50 60 50 L 0 50 Q 0 50 0 50 L 0 0 Q 0 0 0 0 Z"/><path fill="none" stroke="rgb(0,0,0)" d="M 0 0 M 0 0 L 60 0 Q 60 0 60 0 L 60 50 Q 60 50 60 50 L 0 50 Q 0 50 0 50 L 0 0 Q 0 0 0 0 Z" stroke-opacity="0" stroke-miterlimit="10" stroke-width="0"/></g></g></g></g></g><g transform="translate(0,0) matrix(1,0,0,1,260,160)"><g><g transform="translate(0,0) scale(0.6,0.5)"><g><path fill="#ffffff" stroke="none" d="M 0 0 L 100 0 Q 100 0 100 0 L 100 100 Q 100 100 100 100 L 0 100 Q 0 100 0 100 L 0 0 Q 0 0 0 0 Z"/><g transform="scale(1.6666666666666667,2)"><path fill="none" stroke="none" d="M 0 0 L 60 0 Q 60 0 60 0 L 60 50 Q 60 50 60 50 L 0 50 Q 0 50 0 50 L 0 0 Q 0 0 0 0 Z"/><path fill="none" stroke="rgb(0,0,0)" d="M 0 0 M 0 0 L 60 0 Q 60 0 60 0 L 60 50 Q 60 50 60 50 L 0 50 Q 0 50 0 50 L 0 0 Q 0 0 0 0 Z" stroke-opacity="0" stroke-miterlimit="10" stroke-width="0"/></g></g></g></g></g><g transform="translate(0,0) matrix(1,0,0,1,120,220)"><g><g transform="translate(0,0) scale(0.6,0.5)"><g><path fill="#ffffff" stroke="none" d="M 0 0 L 100 0 Q 100 0 100 0 L 100 100 Q 100 100 100 100 L 0 100 Q 0 100 0 100 L 0 0 Q 0 0 0 0 Z"/><g transform="scale(1.6666666666666667,2)"><path fill="none" stroke="none" d="M 0 0 L 60 0 Q 60 0 60 0 L 60 50 Q 60 50 60 50 L 0 50 Q 0 50 0 50 L 0 0 Q 0 0 0 0 Z"/><path fill="none" stroke="rgb(0,0,0)" d="M 0 0 M 0 0 L 60 0 Q 60 0 60 0 L 60 50 Q 60 50 60 50 L 0 50 Q 0 50 0 50 L 0 0 Q 0 0 0 0 Z" stroke-opacity="0" stroke-miterlimit="10" stroke-width="0"/></g></g></g></g></g><g transform="translate(0.5,0.5) matrix(1,0,0,1,550,70)"><g><g transform="translate(0,0) scale(3.3,3.2)"><g><path fill="rgb(255,255,255)" stroke="none" d="M 0 0 L 100 0 Q 100 0 100 0 L 100 100 Q 100 100 100 100 L 0 100 Q 0 100 0 100 L 0 0 Q 0 0 0 0 Z" fill-opacity="0.008"/><g transform="scale(0.30303030303030304,0.3125)"><path fill="none" stroke="none" d="M 0 0 L 330 0 Q 330 0 330 0 L 330 320 Q 330 320 330 320 L 0 320 Q 0 320 0 320 L 0 0 Q 0 0 0 0 Z"/><path fill="none" stroke="#ffffff" d="M 0 0 M 0 0 L 330 0 Q 330 0 330 0 L 330 320 Q 330 320 330 320 L 0 320 Q 0 320 0 320 L 0 0 Q 0 0 0 0 Z" stroke-miterlimit="10" stroke-width="5"/></g></g></g></g></g><g transform="translate(0,0) matrix(1,0,0,1,580,100)"><g><g transform="translate(0,0) scale(0.6,0.5)"><g><path fill="#ffffff" stroke="none" d="M 0 0 L 100 0 Q 100 0 100 0 L 100 100 Q 100 100 100 100 L 0 100 Q 0 100 0 100 L 0 0 Q 0 0 0 0 Z"/><g transform="scale(1.6666666666666667,2)"><path fill="none" stroke="none" d="M 0 0 L 60 0 Q 60 0 60 0 L 60 50 Q 60 50 60 50 L 0 50 Q 0 50 0 50 L 0 0 Q 0 0 0 0 Z"/><path fill="none" stroke="rgb(0,0,0)" d="M 0 0 M 0 0 L 60 0 Q 60 0 60 0 L 60 50 Q 60 50 60 50 L 0 50 Q 0 50 0 50 L 0 0 Q 0 0 0 0 Z" stroke-opacity="0" stroke-miterlimit="10" stroke-width="0"/></g></g></g></g></g><g transform="translate(0,0) matrix(1,0,0,1,650,100)"><g><g transform="translate(0,0) scale(0.6,0.5)"><g><path fill="#ffffff" stroke="none" d="M 0 0 L 100 0 Q 100 0 100 0 L 100 100 Q 100 100 100 100 L 0 100 Q 0 100 0 100 L 0 0 Q 0 0 0 0 Z"/><g transform="scale(1.6666666666666667,2)"><path fill="none" stroke="none" d="M 0 0 L 60 0 Q 60 0 60 0 L 60 50 Q 60 50 60 50 L 0 50 Q 0 50 0 50 L 0 0 Q 0 0 0 0 Z"/><path fill="none" stroke="rgb(0,0,0)" d="M 0 0 M 0 0 L 60 0 Q 60 0 60 0 L 60 50 Q 60 50 60 50 L 0 50 Q 0 50 0 50 L 0 0 Q 0 0 0 0 Z" stroke-opacity="0" stroke-miterlimit="10" stroke-width="0"/></g></g></g></g></g><g transform="translate(0,0) matrix(1,0,0,1,720,100)"><g><g transform="translate(0,0) scale(0.6,0.5)"><g><path fill="#ffffff" stroke="none" d="M 0 0 L 100 0 Q 100 0 100 0 L 100 100 Q 100 100 100 100 L 0 100 Q 0 100 0 100 L 0 0 Q 0 0 0 0 Z"/><g transform="scale(1.6666666666666667,2)"><path fill="none" stroke="none" d="M 0 0 L 60 0 Q 60 0 60 0 L 60 50 Q 60 50 60 50 L 0 50 Q 0 50 0 50 L 0 0 Q 0 0 0 0 Z"/><path fill="none" stroke="rgb(0,0,0)" d="M 0 0 M 0 0 L 60 0 Q 60 0 60 0 L 60 50 Q 60 50 60 50 L 0 50 Q 0 50 0 50 L 0 0 Q 0 0 0 0 Z" stroke-opacity="0" stroke-miterlimit="10" stroke-width="0"/></g></g></g></g></g><g transform="translate(0,0) matrix(1,0,0,1,790,100)"><g><g transform="translate(0,0) scale(0.6,0.5)"><g><path fill="#ffffff" stroke="none" d="M 0 0 L 100 0 Q 100 0 100 0 L 100 100 Q 100 100 100 100 L 0 100 Q 0 100 0 100 L 0 0 Q 0 0 0 0 Z"/><g transform="scale(1.6666666666666667,2)"><path fill="none" stroke="none" d="M 0 0 L 60 0 Q 60 0 60 0 L 60 50 Q 60 50 60 50 L 0 50 Q 0 50 0 50 L 0 0 Q 0 0 0 0 Z"/><path fill="none" stroke="rgb(0,0,0)" d="M 0 0 M 0 0 L 60 0 Q 60 0 60 0 L 60 50 Q 60 50 60 50 L 0 50 Q 0 50 0 50 L 0 0 Q 0 0 0 0 Z" stroke-opacity="0" stroke-miterlimit="10" stroke-width="0"/></g></g></g></g></g><g transform="translate(0,0) matrix(1,0,0,1,580,160)"><g><g transform="translate(0,0) scale(0.6,0.5)"><g><path fill="#ffffff" stroke="none" d="M 0 0 L 100 0 Q 100 0 100 0 L 100 100 Q 100 100 100 100 L 0 100 Q 0 100 0 100 L 0 0 Q 0 0 0 0 Z"/><g transform="scale(1.6666666666666667,2)"><path fill="none" stroke="none" d="M 0 0 L 60 0 Q 60 0 60 0 L 60 50 Q 60 50 60 50 L 0 50 Q 0 50 0 50 L 0 0 Q 0 0 0 0 Z"/><path fill="none" stroke="rgb(0,0,0)" d="M 0 0 M 0 0 L 60 0 Q 60 0 60 0 L 60 50 Q 60 50 60 50 L 0 50 Q 0 50 0 50 L 0 0 Q 0 0 0 0 Z" stroke-opacity="0" stroke-miterlimit="10" stroke-width="0"/></g></g></g></g></g><g transform="translate(0,0) matrix(1,0,0,1,580,220)"><g><g transform="translate(0,0) scale(0.6,0.5)"><g><path fill="#ffffff" stroke="none" d="M 0 0 L 100 0 Q 100 0 100 0 L 100 100 Q 100 100 100 100 L 0 100 Q 0 100 0 100 L 0 0 Q 0 0 0 0 Z"/><g transform="scale(1.6666666666666667,2)"><path fill="none" stroke="none" d="M 0 0 L 60 0 Q 60 0 60 0 L 60 50 Q 60 50 60 50 L 0 50 Q 0 50 0 50 L 0 0 Q 0 0 0 0 Z"/><path fill="none" stroke="rgb(0,0,0)" d="M 0 0 M 0 0 L 60 0 Q 60 0 60 0 L 60 50 Q 60 50 60 50 L 0 50 Q 0 50 0 50 L 0 0 Q 0 0 0 0 Z" stroke-opacity="0" stroke-miterlimit="10" stroke-width="0"/></g></g></g></g></g><g transform="translate(0,0) matrix(1,0,0,1,650,160)"><g><g transform="translate(0,0) scale(0.6,0.5)"><g><path fill="#ffffff" stroke="none" d="M 0 0 L 100 0 Q 100 0 100 0 L 100 100 Q 100 100 100 100 L 0 100 Q 0 100 0 100 L 0 0 Q 0 0 0 0 Z"/><g transform="scale(1.6666666666666667,2)"><path fill="none" stroke="none" d="M 0 0 L 60 0 Q 60 0 60 0 L 60 50 Q 60 50 60 50 L 0 50 Q 0 50 0 50 L 0 0 Q 0 0 0 0 Z"/><path fill="none" stroke="rgb(0,0,0)" d="M 0 0 M 0 0 L 60 0 Q 60 0 60 0 L 60 50 Q 60 50 60 50 L 0 50 Q 0 50 0 50 L 0 0 Q 0 0 0 0 Z" stroke-opacity="0" stroke-miterlimit="10" stroke-width="0"/></g></g></g></g></g><g transform="translate(0,0) matrix(1,0,0,1,720,160)"><g><g transform="translate(0,0) scale(0.6,0.5)"><g><path fill="#ffffff" stroke="none" d="M 0 0 L 100 0 Q 100 0 100 0 L 100 100 Q 100 100 100 100 L 0 100 Q 0 100 0 100 L 0 0 Q 0 0 0 0 Z"/><g transform="scale(1.6666666666666667,2)"><path fill="none" stroke="none" d="M 0 0 L 60 0 Q 60 0 60 0 L 60 50 Q 60 50 60 50 L 0 50 Q 0 50 0 50 L 0 0 Q 0 0 0 0 Z"/><path fill="none" stroke="rgb(0,0,0)" d="M 0 0 M 0 0 L 60 0 Q 60 0 60 0 L 60 50 Q 60 50 60 50 L 0 50 Q 0 50 0 50 L 0 0 Q 0 0 0 0 Z" stroke-opacity="0" stroke-miterlimit="10" stroke-width="0"/></g></g></g></g></g><g transform="translate(0,0) matrix(1,0,0,1,790,160)"><g><g transform="translate(0,0) scale(0.6,0.5)"><g><path fill="#ffffff" stroke="none" d="M 0 0 L 100 0 Q 100 0 100 0 L 100 100 Q 100 100 100 100 L 0 100 Q 0 100 0 100 L 0 0 Q 0 0 0 0 Z"/><g transform="scale(1.6666666666666667,2)"><path fill="none" stroke="none" d="M 0 0 L 60 0 Q 60 0 60 0 L 60 50 Q 60 50 60 50 L 0 50 Q 0 50 0 50 L 0 0 Q 0 0 0 0 Z"/><path fill="none" stroke="rgb(0,0,0)" d="M 0 0 M 0 0 L 60 0 Q 60 0 60 0 L 60 50 Q 60 50 60 50 L 0 50 Q 0 50 0 50 L 0 0 Q 0 0 0 0 Z" stroke-opacity="0" stroke-miterlimit="10" stroke-width="0"/></g></g></g></g></g><g transform="translate(0,0) matrix(1,0,0,1,650,220)"><g><g transform="translate(0,0) scale(0.6,0.5)"><g><path fill="#ffffff" stroke="none" d="M 0 0 L 100 0 Q 100 0 100 0 L 100 100 Q 100 100 100 100 L 0 100 Q 0 100 0 100 L 0 0 Q 0 0 0 0 Z"/><g transform="scale(1.6666666666666667,2)"><path fill="none" stroke="none" d="M 0 0 L 60 0 Q 60 0 60 0 L 60 50 Q 60 50 60 50 L 0 50 Q 0 50 0 50 L 0 0 Q 0 0 0 0 Z"/><path fill="none" stroke="rgb(0,0,0)" d="M 0 0 M 0 0 L 60 0 Q 60 0 60 0 L 60 50 Q 60 50 60 50 L 0 50 Q 0 50 0 50 L 0 0 Q 0 0 0 0 Z" stroke-opacity="0" stroke-miterlimit="10" stroke-width="0"/></g></g></g></g></g><g transform="translate(0,0) matrix(1,0,0,1,400,90)"><g><g transform="translate(0,0) scale(1.1,0.85)"><g><g transform="scale(0.9090909090909091,1.1764705882352942)"><path fill="#ffffff" stroke="none" d="M 0 25.5 L 67.50000000000001 25.5 L 67.50000000000001 0 L 110.00000000000001 42.5 L 67.50000000000001 85 L 67.50000000000001 59.5 L 0 59.5 L 0 25.5 Z"/><path fill="none" stroke="rgb(0,0,0)" d="M 0 25.5 M 0 25.5 L 67.50000000000001 25.5 L 67.50000000000001 0 L 110.00000000000001 42.5 L 67.50000000000001 85 L 67.50000000000001 59.5 L 0 59.5 L 0 25.5 Z" stroke-opacity="0" stroke-miterlimit="10" stroke-width="0"/></g></g></g></g></g><g transform="translate(0,0) matrix(1,0,0,1,400,190)"><g><g transform="translate(0,0) scale(1.1,0.85)"><g><g transform="scale(0.9090909090909091,1.1764705882352942)"><path fill="#ffffff" stroke="none" d="M 0 25.5 L 67.50000000000001 25.5 L 67.50000000000001 0 L 110.00000000000001 42.5 L 67.50000000000001 85 L 67.50000000000001 59.5 L 0 59.5 L 0 25.5 Z"/><path fill="none" stroke="rgb(0,0,0)" d="M 0 25.5 M 0 25.5 L 67.50000000000001 25.5 L 67.50000000000001 0 L 110.00000000000001 42.5 L 67.50000000000001 85 L 67.50000000000001 59.5 L 0 59.5 L 0 25.5 Z" stroke-opacity="0" stroke-miterlimit="10" stroke-width="0"/></g></g></g></g></g></g></svg>